<!DOCTYPE svg PUBLIC "-//W3C//DTD SVG 1.1//EN" "http://www.w3.org/Graphics/SVG/1.1/DTD/svg11.dtd">
<!-- Uploaded to: SVG Repo, www.svgrepo.com, Transformed by: SVG Repo Mixer Tools -->
<svg fill="#000000" version="1.1" id="Capa_1" xmlns="http://www.w3.org/2000/svg" xmlns:xlink="http://www.w3.org/1999/xlink" width="256px" height="256px" viewBox="-43.43 -43.43 521.12 521.12" xml:space="preserve" transform="rotate(0)">
<g id="SVGRepo_bgCarrier" stroke-width="0"/>
<g id="SVGRepo_tracerCarrier" stroke-linecap="round" stroke-linejoin="round" stroke="#CCCCCC" stroke-width="1.737028"/>
<g id="SVGRepo_iconCarrier"> <g> <g> <path d="M291.372,74.244C291.372,33.305,258.07,0,217.129,0c-40.938,0-74.245,33.305-74.245,74.244 c0,34.052,22.683,63.25,55.441,71.779v142.209c-32.754,8.519-55.441,37.718-55.441,71.78c0,40.942,33.307,74.244,74.245,74.244 c40.941,0,74.243-33.302,74.243-74.244c0-34.052-22.682-63.25-55.441-71.78V146.023 C268.69,137.495,291.372,108.296,291.372,74.244z M232.513,293.168c31.357,7.19,53.257,34.67,53.257,66.845 c0,37.851-30.789,68.641-68.641,68.641c-37.849,0-68.641-30.79-68.641-68.641c0-32.17,21.905-59.654,53.26-66.845 c1.272-0.297,2.174-1.424,2.174-2.731V143.82c0-1.305-0.902-2.438-2.174-2.728c-31.36-7.19-53.26-34.678-53.26-66.848 c0-37.85,30.792-68.641,68.641-68.641c37.852,0,68.641,30.791,68.641,68.641c0,32.17-21.904,59.658-53.257,66.848 c-1.275,0.29-2.175,1.423-2.175,2.728v146.616C230.327,291.744,231.237,292.871,232.513,293.168z"/> </g> </g> </g>
</svg>